<mxfile host="Electron" agent="Mozilla/5.0 (X11; Linux x86_64) AppleWebKit/537.36 (KHTML, like Gecko) draw.io/26.0.4 Chrome/128.0.6613.186 Electron/32.2.5 Safari/537.36" version="26.0.4">
  <diagram name="Page-1" id="5ELAFyv1Qb_x9_tp9866">
    <mxGraphModel dx="928" dy="998" grid="1" gridSize="10" guides="1" tooltips="1" connect="1" arrows="1" fold="1" page="1" pageScale="1" pageWidth="850" pageHeight="1100" math="0" shadow="0">
      <root>
        <mxCell id="0" />
        <mxCell id="1" parent="0" />
        <mxCell id="KudmC7WCcUTIOVRb6pPu-21" value="SNS + Lambda" style="rounded=0;whiteSpace=wrap;html=1;fillColor=none;verticalAlign=top;fontStyle=1" vertex="1" parent="1">
          <mxGeometry x="420" y="345" width="340" height="410" as="geometry" />
        </mxCell>
        <mxCell id="KudmC7WCcUTIOVRb6pPu-1" value="SQS + Lambda" style="rounded=0;whiteSpace=wrap;html=1;fillColor=none;verticalAlign=top;fontStyle=1" vertex="1" parent="1">
          <mxGeometry x="90" y="345" width="300" height="190" as="geometry" />
        </mxCell>
        <mxCell id="KudmC7WCcUTIOVRb6pPu-6" value="Try, retry&lt;div&gt;(poll)&lt;/div&gt;" style="edgeStyle=orthogonalEdgeStyle;rounded=0;orthogonalLoop=1;jettySize=auto;html=1;" edge="1" parent="1" source="KudmC7WCcUTIOVRb6pPu-2" target="KudmC7WCcUTIOVRb6pPu-3">
          <mxGeometry relative="1" as="geometry" />
        </mxCell>
        <mxCell id="KudmC7WCcUTIOVRb6pPu-13" style="edgeStyle=orthogonalEdgeStyle;rounded=0;orthogonalLoop=1;jettySize=auto;html=1;" edge="1" parent="1" source="KudmC7WCcUTIOVRb6pPu-2" target="KudmC7WCcUTIOVRb6pPu-7">
          <mxGeometry relative="1" as="geometry" />
        </mxCell>
        <mxCell id="KudmC7WCcUTIOVRb6pPu-2" value="SQS" style="sketch=0;points=[[0,0,0],[0.25,0,0],[0.5,0,0],[0.75,0,0],[1,0,0],[0,1,0],[0.25,1,0],[0.5,1,0],[0.75,1,0],[1,1,0],[0,0.25,0],[0,0.5,0],[0,0.75,0],[1,0.25,0],[1,0.5,0],[1,0.75,0]];outlineConnect=0;fontColor=#232F3E;fillColor=#E7157B;strokeColor=#ffffff;dashed=0;verticalLabelPosition=top;verticalAlign=bottom;align=center;html=1;fontSize=12;fontStyle=0;aspect=fixed;shape=mxgraph.aws4.resourceIcon;resIcon=mxgraph.aws4.sqs;labelPosition=center;" vertex="1" parent="1">
          <mxGeometry x="106" y="394" width="78" height="78" as="geometry" />
        </mxCell>
        <mxCell id="KudmC7WCcUTIOVRb6pPu-3" value="Lambda" style="sketch=0;points=[[0,0,0],[0.25,0,0],[0.5,0,0],[0.75,0,0],[1,0,0],[0,1,0],[0.25,1,0],[0.5,1,0],[0.75,1,0],[1,1,0],[0,0.25,0],[0,0.5,0],[0,0.75,0],[1,0.25,0],[1,0.5,0],[1,0.75,0]];outlineConnect=0;fontColor=#232F3E;fillColor=#ED7100;strokeColor=#ffffff;dashed=0;verticalLabelPosition=bottom;verticalAlign=top;align=center;html=1;fontSize=12;fontStyle=0;aspect=fixed;shape=mxgraph.aws4.resourceIcon;resIcon=mxgraph.aws4.lambda;" vertex="1" parent="1">
          <mxGeometry x="300" y="394" width="78" height="78" as="geometry" />
        </mxCell>
        <mxCell id="KudmC7WCcUTIOVRb6pPu-29" value="&amp;nbsp;asynchronous&amp;nbsp;" style="edgeStyle=orthogonalEdgeStyle;rounded=0;orthogonalLoop=1;jettySize=auto;html=1;dashed=1;" edge="1" parent="1" source="KudmC7WCcUTIOVRb6pPu-4" target="KudmC7WCcUTIOVRb6pPu-25">
          <mxGeometry relative="1" as="geometry" />
        </mxCell>
        <mxCell id="KudmC7WCcUTIOVRb6pPu-4" value="SNS" style="sketch=0;points=[[0,0,0],[0.25,0,0],[0.5,0,0],[0.75,0,0],[1,0,0],[0,1,0],[0.25,1,0],[0.5,1,0],[0.75,1,0],[1,1,0],[0,0.25,0],[0,0.5,0],[0,0.75,0],[1,0.25,0],[1,0.5,0],[1,0.75,0]];outlineConnect=0;fontColor=#232F3E;fillColor=#E7157B;strokeColor=#ffffff;dashed=0;verticalLabelPosition=top;verticalAlign=bottom;align=center;html=1;fontSize=12;fontStyle=0;aspect=fixed;shape=mxgraph.aws4.resourceIcon;resIcon=mxgraph.aws4.sns;labelPosition=center;" vertex="1" parent="1">
          <mxGeometry x="440" y="394" width="78" height="78" as="geometry" />
        </mxCell>
        <mxCell id="KudmC7WCcUTIOVRb6pPu-7" value="DLQ" style="text;html=1;align=center;verticalAlign=middle;resizable=0;points=[];autosize=1;strokeColor=none;fillColor=none;fontStyle=1" vertex="1" parent="1">
          <mxGeometry x="120" y="505" width="50" height="30" as="geometry" />
        </mxCell>
        <mxCell id="KudmC7WCcUTIOVRb6pPu-15" value="SQS FIFO + Lambda" style="rounded=0;whiteSpace=wrap;html=1;fillColor=none;verticalAlign=top;fontStyle=1" vertex="1" parent="1">
          <mxGeometry x="90" y="565" width="300" height="190" as="geometry" />
        </mxCell>
        <mxCell id="KudmC7WCcUTIOVRb6pPu-16" value="Try, retry&lt;div&gt;blocking&lt;/div&gt;" style="edgeStyle=orthogonalEdgeStyle;rounded=0;orthogonalLoop=1;jettySize=auto;html=1;" edge="1" parent="1" source="KudmC7WCcUTIOVRb6pPu-18" target="KudmC7WCcUTIOVRb6pPu-19">
          <mxGeometry relative="1" as="geometry" />
        </mxCell>
        <mxCell id="KudmC7WCcUTIOVRb6pPu-17" style="edgeStyle=orthogonalEdgeStyle;rounded=0;orthogonalLoop=1;jettySize=auto;html=1;" edge="1" parent="1" source="KudmC7WCcUTIOVRb6pPu-18" target="KudmC7WCcUTIOVRb6pPu-20">
          <mxGeometry relative="1" as="geometry" />
        </mxCell>
        <mxCell id="KudmC7WCcUTIOVRb6pPu-18" value="SQS FIFO" style="sketch=0;points=[[0,0,0],[0.25,0,0],[0.5,0,0],[0.75,0,0],[1,0,0],[0,1,0],[0.25,1,0],[0.5,1,0],[0.75,1,0],[1,1,0],[0,0.25,0],[0,0.5,0],[0,0.75,0],[1,0.25,0],[1,0.5,0],[1,0.75,0]];outlineConnect=0;fontColor=#232F3E;fillColor=#E7157B;strokeColor=#ffffff;dashed=0;verticalLabelPosition=top;verticalAlign=bottom;align=center;html=1;fontSize=12;fontStyle=0;aspect=fixed;shape=mxgraph.aws4.resourceIcon;resIcon=mxgraph.aws4.sqs;labelPosition=center;" vertex="1" parent="1">
          <mxGeometry x="106" y="614" width="78" height="78" as="geometry" />
        </mxCell>
        <mxCell id="KudmC7WCcUTIOVRb6pPu-19" value="Lambda" style="sketch=0;points=[[0,0,0],[0.25,0,0],[0.5,0,0],[0.75,0,0],[1,0,0],[0,1,0],[0.25,1,0],[0.5,1,0],[0.75,1,0],[1,1,0],[0,0.25,0],[0,0.5,0],[0,0.75,0],[1,0.25,0],[1,0.5,0],[1,0.75,0]];outlineConnect=0;fontColor=#232F3E;fillColor=#ED7100;strokeColor=#ffffff;dashed=0;verticalLabelPosition=bottom;verticalAlign=top;align=center;html=1;fontSize=12;fontStyle=0;aspect=fixed;shape=mxgraph.aws4.resourceIcon;resIcon=mxgraph.aws4.lambda;" vertex="1" parent="1">
          <mxGeometry x="300" y="614" width="78" height="78" as="geometry" />
        </mxCell>
        <mxCell id="KudmC7WCcUTIOVRb6pPu-20" value="DLQ" style="text;html=1;align=center;verticalAlign=middle;resizable=0;points=[];autosize=1;strokeColor=none;fillColor=none;fontStyle=1" vertex="1" parent="1">
          <mxGeometry x="120" y="725" width="50" height="30" as="geometry" />
        </mxCell>
        <mxCell id="KudmC7WCcUTIOVRb6pPu-24" value="SQS" style="sketch=0;points=[[0,0,0],[0.25,0,0],[0.5,0,0],[0.75,0,0],[1,0,0],[0,1,0],[0.25,1,0],[0.5,1,0],[0.75,1,0],[1,1,0],[0,0.25,0],[0,0.5,0],[0,0.75,0],[1,0.25,0],[1,0.5,0],[1,0.75,0]];outlineConnect=0;fontColor=#232F3E;fillColor=#E7157B;strokeColor=#ffffff;dashed=0;verticalLabelPosition=middle;verticalAlign=middle;align=right;html=1;fontSize=12;fontStyle=0;aspect=fixed;shape=mxgraph.aws4.resourceIcon;resIcon=mxgraph.aws4.sqs;labelPosition=left;spacingRight=5;" vertex="1" parent="1">
          <mxGeometry x="650" y="614" width="78" height="78" as="geometry" />
        </mxCell>
        <mxCell id="KudmC7WCcUTIOVRb6pPu-33" style="edgeStyle=orthogonalEdgeStyle;rounded=0;orthogonalLoop=1;jettySize=auto;html=1;dashed=1;" edge="1" parent="1" source="KudmC7WCcUTIOVRb6pPu-25" target="KudmC7WCcUTIOVRb6pPu-24">
          <mxGeometry relative="1" as="geometry" />
        </mxCell>
        <mxCell id="KudmC7WCcUTIOVRb6pPu-25" value="Lambda" style="sketch=0;points=[[0,0,0],[0.25,0,0],[0.5,0,0],[0.75,0,0],[1,0,0],[0,1,0],[0.25,1,0],[0.5,1,0],[0.75,1,0],[1,1,0],[0,0.25,0],[0,0.5,0],[0,0.75,0],[1,0.25,0],[1,0.5,0],[1,0.75,0]];outlineConnect=0;fontColor=#232F3E;fillColor=#ED7100;strokeColor=#ffffff;dashed=0;verticalLabelPosition=bottom;verticalAlign=top;align=center;html=1;fontSize=12;fontStyle=0;aspect=fixed;shape=mxgraph.aws4.resourceIcon;resIcon=mxgraph.aws4.lambda;" vertex="1" parent="1">
          <mxGeometry x="650" y="394" width="78" height="78" as="geometry" />
        </mxCell>
        <mxCell id="KudmC7WCcUTIOVRb6pPu-26" value="DLQ" style="text;html=1;align=center;verticalAlign=middle;resizable=0;points=[];autosize=1;strokeColor=none;fillColor=none;fontStyle=1" vertex="1" parent="1">
          <mxGeometry x="680" y="525" width="50" height="30" as="geometry" />
        </mxCell>
        <mxCell id="KudmC7WCcUTIOVRb6pPu-32" value="&amp;nbsp;retries&amp;nbsp;" style="edgeStyle=orthogonalEdgeStyle;rounded=0;orthogonalLoop=1;jettySize=auto;html=1;exitX=1;exitY=0.5;exitDx=0;exitDy=0;exitPerimeter=0;entryX=0.5;entryY=0;entryDx=0;entryDy=0;entryPerimeter=0;" edge="1" parent="1" source="KudmC7WCcUTIOVRb6pPu-25" target="KudmC7WCcUTIOVRb6pPu-25">
          <mxGeometry x="0.3753" relative="1" as="geometry">
            <Array as="points">
              <mxPoint x="750" y="433" />
              <mxPoint x="750" y="375" />
              <mxPoint x="689" y="375" />
            </Array>
            <mxPoint as="offset" />
          </mxGeometry>
        </mxCell>
      </root>
    </mxGraphModel>
  </diagram>
</mxfile>
